<svg width="57" height="64" viewBox="0 0 57 64" fill="none" xmlns="http://www.w3.org/2000/svg">
<path d="M27.9462 0C24.2938 3.53587 21.2286 6.41795 18.2707 9.2367C17.2453 10.2454 16.077 11.3719 14.7894 12.5981C8.69615 18.4012 7.67665 27.7076 12.5106 34.575L28.4248 57.184C31.9708 62.2217 38.8995 62.8599 43.88 59.2004C44.5545 58.7048 45.3193 58.1467 46.1895 57.515C46.9827 56.9391 48.3276 55.6953 50.0218 54.0381C58.6456 45.6028 58.6065 31.6892 50.2207 23.022L27.9462 0Z" fill="#1952BB"/>
<path d="M18.2713 9.23934C15.3679 12.0311 13.2017 14.0794 9.91953 17.1712C4.14328 22.6124 2.95788 31.2937 7.06703 38.058L12.863 47.5992C-0.211306 46.1456 10.5268 52.9934 21.3028 60.9091C25.2043 63.7751 30.9991 64.6608 35.6186 63.1718C38.5753 62.2187 41.7596 60.9448 44.22 58.812C44.3554 58.6946 44.4915 58.5759 44.6281 58.4561C51.1784 52.7122 52.2613 41.7673 44.8793 37.1157C31.122 28.9806 23.815 20.3135 18.2713 9.23934Z" fill="#187F35"/>
<path d="M10.0461 17.0543C9.81575 17.262 9.72363 17.3532 9.4971 17.5838C-1.95534 28.467 -2.60224 42.6522 8.29086 54.0843C16.1228 62.3037 23.9117 64 29.1525 64C35.6438 63.8367 40.5084 58.0152 40.5083 51.5872C40.5082 45.3295 39.3947 43.0411 32.1481 39.6303C24.0878 35.8364 17.6628 29.6786 10.0461 17.0543Z" fill="#FFA800"/>
</svg>
