<svg width="46" height="47" viewBox="0 0 46 47" fill="none" xmlns="http://www.w3.org/2000/svg">
<mask id="path-1-inside-1_63_583" fill="white">
<path fill-rule="evenodd" clip-rule="evenodd" d="M0 0.5H32C39.732 0.5 46 6.76801 46 14.5V46.5H39V38.5C39 34.0817 35.4183 30.5 31 30.5H28V46.5H0V0.5ZM5 19.5C5 15.0817 8.58172 11.5 13 11.5H23V23.5H5V19.5Z"/>
</mask>
<path d="M0 0.5V-0.5H-1V0.5H0ZM46 46.5V47.5H47V46.5H46ZM39 46.5H38V47.5H39V46.5ZM28 30.5V29.5H27V30.5H28ZM28 46.5V47.5H29V46.5H28ZM0 46.5H-1V47.5H0V46.5ZM23 11.5H24V10.5H23V11.5ZM23 23.5V24.5H24V23.5H23ZM5 23.5H4V24.5H5V23.5ZM32 -0.5H0V1.5H32V-0.5ZM47 14.5C47 6.21573 40.2843 -0.5 32 -0.5V1.5C39.1797 1.5 45 7.3203 45 14.5H47ZM47 46.5V14.5H45V46.5H47ZM39 47.5H46V45.5H39V47.5ZM40 46.5V38.5H38V46.5H40ZM40 38.5C40 33.5294 35.9706 29.5 31 29.5V31.5C34.866 31.5 38 34.634 38 38.5H40ZM31 29.5H28V31.5H31V29.5ZM27 30.5V46.5H29V30.5H27ZM0 47.5H28V45.5H0V47.5ZM-1 0.5V46.5H1V0.5H-1ZM13 10.5C8.02944 10.5 4 14.5294 4 19.5H6C6 15.634 9.13401 12.5 13 12.5V10.5ZM23 10.5H13V12.5H23V10.5ZM24 23.5V11.5H22V23.5H24ZM5 24.5H23V22.5H5V24.5ZM4 19.5V23.5H6V19.5H4Z" fill="#FFC396" mask="url(#path-1-inside-1_63_583)"/>
</svg>
