<svg width="47" height="47" viewBox="0 0 47 47" fill="none" xmlns="http://www.w3.org/2000/svg">
<g clip-path="url(#clip0_63_589)">
<path d="M24.3418 6.50001C24.3418 3.1863 27.0281 0.5 30.3418 0.5H46.4991V16.472C46.4991 19.7857 43.8128 22.472 40.4991 22.472H24.3418V6.50001Z" fill="#FFC396"/>
</g>
<path d="M30.3418 1H45.9991V16.472C45.9991 19.5096 43.5367 21.972 40.4991 21.972H24.8418V6.50001C24.8418 3.46244 27.3042 1 30.3418 1Z" stroke="#FFC396"/>
<path d="M1 1H16.6573C19.6949 1 22.1573 3.46243 22.1573 6.5V21.972H6.5C3.46243 21.972 1 19.5096 1 16.472V1Z" fill="#FFC396"/>
<path d="M1 1H16.6573C19.6949 1 22.1573 3.46243 22.1573 6.5V21.972H6.5C3.46243 21.972 1 19.5096 1 16.472V1Z" stroke="#FFC396"/>
<g clip-path="url(#clip1_63_589)">
<path d="M0.5 30.5281C0.5 27.2144 3.18629 24.5281 6.5 24.5281H22.6573V40.5001C22.6573 43.8138 19.971 46.5001 16.6573 46.5001H0.5V30.5281Z" fill="#FFC396"/>
</g>
<path d="M6.5 25.0281H22.1573V40.5001C22.1573 43.5376 19.6949 46.0001 16.6573 46.0001H1V30.5281C1 27.4905 3.46244 25.0281 6.5 25.0281Z" stroke="#FFC396"/>
<g clip-path="url(#clip2_63_589)">
<path d="M24.3418 24.5281H40.4991C43.8128 24.5281 46.4991 27.2144 46.4991 30.5281V46.5001H30.3418C27.0281 46.5001 24.3418 43.8138 24.3418 40.5001V24.5281Z" fill="#FFC396"/>
</g>
<path d="M24.8418 25.0281H40.4991C43.5367 25.0281 45.9991 27.4905 45.9991 30.5281V46.0001H30.3418C27.3042 46.0001 24.8418 43.5376 24.8418 40.5001V25.0281Z" stroke="#FFC396"/>
<defs>
<clipPath id="clip0_63_589">
<path d="M24.3418 6.50001C24.3418 3.1863 27.0281 0.5 30.3418 0.5H46.4991V16.472C46.4991 19.7857 43.8128 22.472 40.4991 22.472H24.3418V6.50001Z" fill="white"/>
</clipPath>
<clipPath id="clip1_63_589">
<path d="M0.5 30.5281C0.5 27.2144 3.18629 24.5281 6.5 24.5281H22.6573V40.5001C22.6573 43.8138 19.971 46.5001 16.6573 46.5001H0.5V30.5281Z" fill="white"/>
</clipPath>
<clipPath id="clip2_63_589">
<path d="M24.3418 24.5281H40.4991C43.8128 24.5281 46.4991 27.2144 46.4991 30.5281V46.5001H30.3418C27.0281 46.5001 24.3418 43.8138 24.3418 40.5001V24.5281Z" fill="white"/>
</clipPath>
</defs>
</svg>
